<svg viewBox="0 0 10000 10000" width="32" height="32" xmlns="http://www.w3.org/2000/svg">
	<path d="M6525.771 9793.154c0-10.935 40.096-72.901 87.482-140.335 371.796-526.711 534.001-949.538 508.486-1334.092-32.806-495.728-382.732-898.507-1151.84-1323.157-236.928-129.4-734.479-371.796-1184.644-574.097-1565.553-705.319-2321.903-1211.982-2834.034-1895.43-738.125-982.344-741.77-2084.975-12.758-2985.305 244.22-304.362 543.114-564.984 951.36-836.541 282.493-185.898 719.9-422.827 719.9-390.022 0 9.113-5.467 20.048-14.58 23.693-30.983 12.758-269.734 338.99-360.86 492.083-357.217 605.08-353.572 1098.986 14.58 1556.441 280.669 349.926 845.653 707.142 1855.335 1173.71 1038.842 481.147 1447.089 683.448 1795.192 889.394 1058.89 621.483 1598.359 1252.078 1771.5 2063.104 43.74 211.413 43.74 754.527-1.823 1002.391-94.772 528.534-322.588 998.747-668.869 1374.188-222.349 244.219-570.452 499.373-925.845 677.981" fill="#20cd8d"/>
	<path d="M4021.629 9919.523c-665.223-56.498-1295.82-300.717-1733.227-672.513-324.411-277.025-654.288-756.352-838.364-1219.274-120.287-300.717-256.977-872.992-256.977-1073.47v-58.322l120.287 91.127c359.038 271.558 812.849 397.311 2130.539 590.5 918.556 136.69 1425.218 284.314 1786.08 526.711 293.428 195.011 462.923 406.426 554.049 694.385 54.677 167.673 103.885 481.148 78.369 503.018-29.16 27.339-927.668-209.591-1359.608-360.861-477.503-165.85-989.635-384.554-1430.687-610.547-153.092-78.369-282.491-140.335-287.96-136.69-30.983 32.804 508.486 419.182 860.235 617.838 348.104 195.011 924.024 457.455 1603.828 729.012 411.891 164.028 459.278 187.721 433.761 202.301-32.804 20.048-506.662 122.109-701.673 151.271-231.462 32.804-707.142 45.562-958.652 25.514m2411.209-6716.027c-537.646-543.115-1496.298-1131.792-2090.443-1284.884-173.14-45.563-441.052-49.208-577.743-7.29-122.109 36.451-256.977 164.027-289.782 275.202-12.757 41.919-30.983 82.013-40.095 87.481-7.29 5.468-32.807-38.272-54.677-94.771-156.738-415.537-140.336-893.041 40.095-1246.612 107.531-209.591 377.265-455.633 643.355-586.854 497.55-244.22 1306.754-311.653 2024.832-167.674 898.507 180.431 1709.534 610.549 2376.58 1259.37l246.042 240.575-36.451 40.095c-80.192 91.126-1982.914 1713.179-2004.784 1709.534-9.112-1.823-116.642-102.061-236.929-224.172" style="fill:#fff"/>
</svg>
